<mxfile host="app.diagrams.net" modified="2020-11-27T13:26:55.060Z" agent="5.0 (Windows NT 10.0; Win64; x64) AppleWebKit/537.36 (KHTML, like Gecko) Chrome/87.0.4280.67 Safari/537.36 Edg/87.0.664.47" etag="PQUZpw5xOuRqbcv2oTZe" version="13.10.0" type="github">
  <diagram id="IaE7fv_VR-4owoUH4sL6" name="Page-1">
    <mxGraphModel dx="1280" dy="652" grid="1" gridSize="10" guides="1" tooltips="1" connect="1" arrows="1" fold="1" page="1" pageScale="1" pageWidth="850" pageHeight="1100" background="#ffffff" math="0" shadow="0">
      <root>
        <mxCell id="0" />
        <mxCell id="1" parent="0" />
        <mxCell id="pz0rCT-SLgXBm0Ynou9--1" value="" style="ellipse;html=1;shape=startState;fillColor=#000000;strokeColor=#ff0000;" vertex="1" parent="1">
          <mxGeometry x="620" y="300" width="30" height="30" as="geometry" />
        </mxCell>
        <mxCell id="pz0rCT-SLgXBm0Ynou9--2" value="" style="edgeStyle=orthogonalEdgeStyle;html=1;verticalAlign=bottom;endArrow=open;endSize=8;strokeColor=#ff0000;entryX=0.5;entryY=0;entryDx=0;entryDy=0;" edge="1" source="pz0rCT-SLgXBm0Ynou9--1" parent="1" target="pz0rCT-SLgXBm0Ynou9--3">
          <mxGeometry relative="1" as="geometry">
            <mxPoint x="635" y="420" as="targetPoint" />
          </mxGeometry>
        </mxCell>
        <mxCell id="pz0rCT-SLgXBm0Ynou9--3" value="&lt;font style=&quot;font-size: 14px&quot;&gt;Hiển thị trang chủ&lt;/font&gt;" style="html=1;align=center;verticalAlign=top;rounded=1;absoluteArcSize=1;arcSize=10;dashed=0;" vertex="1" parent="1">
          <mxGeometry x="565" y="425" width="140" height="40" as="geometry" />
        </mxCell>
        <mxCell id="pz0rCT-SLgXBm0Ynou9--4" value="&lt;font style=&quot;font-size: 14px&quot;&gt;Nhập vào ô tra cứu&lt;/font&gt;" style="html=1;align=center;verticalAlign=top;rounded=1;absoluteArcSize=1;arcSize=10;dashed=0;" vertex="1" parent="1">
          <mxGeometry x="570" y="590" width="140" height="40" as="geometry" />
        </mxCell>
        <mxCell id="pz0rCT-SLgXBm0Ynou9--5" value="" style="html=1;verticalAlign=bottom;endArrow=block;exitX=0.5;exitY=1;exitDx=0;exitDy=0;" edge="1" parent="1" source="pz0rCT-SLgXBm0Ynou9--3">
          <mxGeometry width="80" relative="1" as="geometry">
            <mxPoint x="660" y="550" as="sourcePoint" />
            <mxPoint x="635" y="586" as="targetPoint" />
          </mxGeometry>
        </mxCell>
        <mxCell id="pz0rCT-SLgXBm0Ynou9--6" value="&lt;font style=&quot;font-size: 14px&quot;&gt;Thông báo không &lt;br&gt;tìm thấy&lt;/font&gt;" style="html=1;align=center;verticalAlign=top;rounded=1;absoluteArcSize=1;arcSize=10;dashed=0;" vertex="1" parent="1">
          <mxGeometry x="660" y="730" width="140" height="40" as="geometry" />
        </mxCell>
        <mxCell id="pz0rCT-SLgXBm0Ynou9--7" value="" style="html=1;verticalAlign=bottom;endArrow=block;exitX=0;exitY=0.5;exitDx=0;exitDy=0;entryX=0;entryY=0.75;entryDx=0;entryDy=0;" edge="1" parent="1" source="pz0rCT-SLgXBm0Ynou9--6" target="pz0rCT-SLgXBm0Ynou9--3">
          <mxGeometry x="-1" y="-155" width="80" relative="1" as="geometry">
            <mxPoint x="500" y="740" as="sourcePoint" />
            <mxPoint x="570" y="499.40999999999997" as="targetPoint" />
            <Array as="points">
              <mxPoint x="530" y="750" />
              <mxPoint x="530" y="640" />
              <mxPoint x="530" y="455" />
            </Array>
            <mxPoint x="-40" y="-5" as="offset" />
          </mxGeometry>
        </mxCell>
        <mxCell id="pz0rCT-SLgXBm0Ynou9--8" value="&lt;span style=&quot;font-size: 14px&quot;&gt;Hiển thị danh sách&amp;nbsp;&lt;br&gt;&lt;/span&gt;kết quả" style="html=1;align=center;verticalAlign=top;rounded=1;absoluteArcSize=1;arcSize=10;dashed=0;" vertex="1" parent="1">
          <mxGeometry x="910" y="730" width="140" height="40" as="geometry" />
        </mxCell>
        <mxCell id="pz0rCT-SLgXBm0Ynou9--9" value="So sánh" style="rhombus;whiteSpace=wrap;html=1;fillColor=#ffffc0;strokeColor=#ff0000;" vertex="1" parent="1">
          <mxGeometry x="845" y="620" width="80" height="40" as="geometry" />
        </mxCell>
        <mxCell id="pz0rCT-SLgXBm0Ynou9--10" value="&lt;font style=&quot;font-size: 12px&quot;&gt;Có kết quả&lt;/font&gt;" style="edgeStyle=orthogonalEdgeStyle;html=1;align=left;verticalAlign=bottom;endArrow=open;endSize=8;strokeColor=#ff0000;" edge="1" parent="1">
          <mxGeometry x="-1" relative="1" as="geometry">
            <mxPoint x="990.0588235294117" y="730" as="targetPoint" />
            <mxPoint x="925" y="640" as="sourcePoint" />
            <Array as="points">
              <mxPoint x="990" y="640" />
            </Array>
          </mxGeometry>
        </mxCell>
        <mxCell id="pz0rCT-SLgXBm0Ynou9--12" value="&lt;font style=&quot;font-size: 12px&quot;&gt;Không có kết quả&lt;/font&gt;" style="edgeStyle=orthogonalEdgeStyle;html=1;align=left;verticalAlign=bottom;endArrow=open;endSize=8;strokeColor=#ff0000;exitX=0;exitY=0.5;exitDx=0;exitDy=0;" edge="1" parent="1">
          <mxGeometry x="0.0267" relative="1" as="geometry">
            <mxPoint x="750" y="730" as="targetPoint" />
            <mxPoint x="845" y="640" as="sourcePoint" />
            <Array as="points">
              <mxPoint x="750" y="640" />
            </Array>
            <mxPoint as="offset" />
          </mxGeometry>
        </mxCell>
        <mxCell id="pz0rCT-SLgXBm0Ynou9--13" value="" style="html=1;verticalAlign=bottom;endArrow=block;entryX=0.5;entryY=0;entryDx=0;entryDy=0;" edge="1" parent="1" target="pz0rCT-SLgXBm0Ynou9--9">
          <mxGeometry width="80" relative="1" as="geometry">
            <mxPoint x="710" y="590" as="sourcePoint" />
            <mxPoint x="790" y="590" as="targetPoint" />
            <Array as="points">
              <mxPoint x="750" y="590" />
              <mxPoint x="885" y="590" />
            </Array>
          </mxGeometry>
        </mxCell>
        <mxCell id="pz0rCT-SLgXBm0Ynou9--14" value="&lt;font style=&quot;font-size: 14px&quot;&gt;Hiển thị trang chủ&lt;/font&gt;" style="html=1;align=center;verticalAlign=top;rounded=1;absoluteArcSize=1;arcSize=10;dashed=0;" vertex="1" parent="1">
          <mxGeometry x="800" y="335" width="140" height="40" as="geometry" />
        </mxCell>
        <mxCell id="pz0rCT-SLgXBm0Ynou9--15" value="&lt;font style=&quot;font-size: 14px&quot;&gt;Hiển thị trang chủ&lt;/font&gt;" style="html=1;align=center;verticalAlign=top;rounded=1;absoluteArcSize=1;arcSize=10;dashed=0;" vertex="1" parent="1">
          <mxGeometry x="800" y="395" width="140" height="40" as="geometry" />
        </mxCell>
        <mxCell id="pz0rCT-SLgXBm0Ynou9--16" value="&lt;font style=&quot;font-size: 14px&quot;&gt;Hiển thị trang chủ&lt;/font&gt;" style="html=1;align=center;verticalAlign=top;rounded=1;absoluteArcSize=1;arcSize=10;dashed=0;" vertex="1" parent="1">
          <mxGeometry x="800" y="450" width="140" height="40" as="geometry" />
        </mxCell>
        <mxCell id="pz0rCT-SLgXBm0Ynou9--17" value="&lt;font style=&quot;font-size: 14px&quot;&gt;Hiển thị trang chủ&lt;/font&gt;" style="html=1;align=center;verticalAlign=top;rounded=1;absoluteArcSize=1;arcSize=10;dashed=0;" vertex="1" parent="1">
          <mxGeometry x="800" y="505" width="140" height="40" as="geometry" />
        </mxCell>
        <mxCell id="pz0rCT-SLgXBm0Ynou9--19" value="" style="html=1;points=[];perimeter=orthogonalPerimeter;fillColor=#000000;strokeColor=none;" vertex="1" parent="1">
          <mxGeometry x="750" y="340" width="5" height="200" as="geometry" />
        </mxCell>
        <mxCell id="pz0rCT-SLgXBm0Ynou9--20" value="" style="html=1;verticalAlign=bottom;endArrow=block;" edge="1" parent="1">
          <mxGeometry x="0.25" y="-40" width="80" relative="1" as="geometry">
            <mxPoint x="705" y="444.40999999999997" as="sourcePoint" />
            <mxPoint x="750" y="444" as="targetPoint" />
            <mxPoint x="-1" as="offset" />
          </mxGeometry>
        </mxCell>
        <mxCell id="pz0rCT-SLgXBm0Ynou9--23" value="" style="html=1;verticalAlign=bottom;endArrow=block;" edge="1" parent="1">
          <mxGeometry width="80" relative="1" as="geometry">
            <mxPoint x="770" y="354.40999999999997" as="sourcePoint" />
            <mxPoint x="800" y="354" as="targetPoint" />
            <Array as="points">
              <mxPoint x="750" y="354.40999999999997" />
            </Array>
          </mxGeometry>
        </mxCell>
        <mxCell id="pz0rCT-SLgXBm0Ynou9--26" value="" style="html=1;verticalAlign=bottom;endArrow=block;entryX=0;entryY=0.5;entryDx=0;entryDy=0;exitX=0.008;exitY=0.369;exitDx=0;exitDy=0;exitPerimeter=0;" edge="1" parent="1" source="pz0rCT-SLgXBm0Ynou9--19" target="pz0rCT-SLgXBm0Ynou9--15">
          <mxGeometry width="80" relative="1" as="geometry">
            <mxPoint x="760" y="415" as="sourcePoint" />
            <mxPoint x="810" y="364" as="targetPoint" />
            <Array as="points" />
          </mxGeometry>
        </mxCell>
        <mxCell id="pz0rCT-SLgXBm0Ynou9--27" value="" style="html=1;verticalAlign=bottom;endArrow=block;" edge="1" parent="1">
          <mxGeometry width="80" relative="1" as="geometry">
            <mxPoint x="770" y="469.81999999999994" as="sourcePoint" />
            <mxPoint x="800" y="469.40999999999997" as="targetPoint" />
            <Array as="points">
              <mxPoint x="750" y="469.82" />
            </Array>
          </mxGeometry>
        </mxCell>
        <mxCell id="pz0rCT-SLgXBm0Ynou9--29" value="" style="html=1;verticalAlign=bottom;endArrow=block;" edge="1" parent="1">
          <mxGeometry width="80" relative="1" as="geometry">
            <mxPoint x="770" y="524.8199999999999" as="sourcePoint" />
            <mxPoint x="800" y="524.41" as="targetPoint" />
            <Array as="points">
              <mxPoint x="750" y="524.8199999999999" />
            </Array>
          </mxGeometry>
        </mxCell>
        <mxCell id="pz0rCT-SLgXBm0Ynou9--34" value="&lt;span style=&quot;color: rgba(0 , 0 , 0 , 0) ; font-family: monospace ; font-size: 0px&quot;&gt;%3CmxGraphModel%3E%3Croot%3E%3CmxCell%20id%3D%220%22%2F%3E%3CmxCell%20id%3D%221%22%20parent%3D%220%22%2F%3E%3CmxCell%20id%3D%222%22%20value%3D%22%22%20style%3D%22html%3D1%3BverticalAlign%3Dbottom%3BendArrow%3Dblock%3B%22%20edge%3D%221%22%20parent%3D%221%22%3E%3CmxGeometry%20width%3D%2280%22%20relative%3D%221%22%20as%3D%22geometry%22%3E%3CmxPoint%20x%3D%22310%22%20y%3D%22124.40999999999997%22%20as%3D%22sourcePoint%22%2F%3E%3CmxPoint%20x%3D%22340%22%20y%3D%22124%22%20as%3D%22targetPoint%22%2F%3E%3CArray%20as%3D%22points%22%3E%3CmxPoint%20x%3D%22290%22%20y%3D%22124.41%22%2F%3E%3C%2FArray%3E%3C%2FmxGeometry%3E%3C%2FmxCell%3E%3CmxCell%20id%3D%223%22%20value%3D%22%22%20style%3D%22html%3D1%3BverticalAlign%3Dbottom%3BendArrow%3Dblock%3BentryX%3D0%3BentryY%3D0.5%3BentryDx%3D0%3BentryDy%3D0%3BexitX%3D0.008%3BexitY%3D0.369%3BexitDx%3D0%3BexitDy%3D0%3BexitPerimeter%3D0%3B%22%20edge%3D%221%22%20parent%3D%221%22%3E%3CmxGeometry%20width%3D%2280%22%20relative%3D%221%22%20as%3D%22geometry%22%3E%3CmxPoint%20x%3D%22290.0400000000001%22%20y%3D%22183.80000000000007%22%20as%3D%22sourcePoint%22%2F%3E%3CmxPoint%20x%3D%22340%22%20y%3D%22185%22%20as%3D%22targetPoint%22%2F%3E%3CArray%20as%3D%22points%22%2F%3E%3C%2FmxGeometry%3E%3C%2FmxCell%3E%3CmxCell%20id%3D%224%22%20value%3D%22%22%20style%3D%22html%3D1%3BverticalAlign%3Dbottom%3BendArrow%3Dblock%3B%22%20edge%3D%221%22%20parent%3D%221%22%3E%3CmxGeometry%20width%3D%2280%22%20relative%3D%221%22%20as%3D%22geometry%22%3E%3CmxPoint%20x%3D%22310%22%20y%3D%22239.81999999999994%22%20as%3D%22sourcePoint%22%2F%3E%3CmxPoint%20x%3D%22340%22%20y%3D%22239.40999999999997%22%20as%3D%22targetPoint%22%2F%3E%3CArray%20as%3D%22points%22%3E%3CmxPoint%20x%3D%22290%22%20y%3D%22239.82%22%2F%3E%3C%2FArray%3E%3C%2FmxGeometry%3E%3C%2FmxCell%3E%3CmxCell%20id%3D%225%22%20value%3D%22%22%20style%3D%22html%3D1%3BverticalAlign%3Dbottom%3BendArrow%3Dblock%3B%22%20edge%3D%221%22%20parent%3D%221%22%3E%3CmxGeometry%20width%3D%2280%22%20relative%3D%221%22%20as%3D%22geometry%22%3E%3CmxPoint%20x%3D%22310%22%20y%3D%22294.81999999999994%22%20as%3D%22sourcePoint%22%2F%3E%3CmxPoint%20x%3D%22340%22%20y%3D%22294.40999999999997%22%20as%3D%22targetPoint%22%2F%3E%3CArray%20as%3D%22points%22%3E%3CmxPoint%20x%3D%22290%22%20y%3D%22294.82%22%2F%3E%3C%2FArray%3E%3C%2FmxGeometry%3E%3C%2FmxCell%3E%3C%2Froot%3E%3C%2FmxGraphModel%3E&lt;/span&gt;" style="text;html=1;align=center;verticalAlign=middle;resizable=0;points=[];autosize=1;" vertex="1" parent="1">
          <mxGeometry x="1040" y="460" width="20" height="20" as="geometry" />
        </mxCell>
        <mxCell id="pz0rCT-SLgXBm0Ynou9--39" value="" style="html=1;points=[];perimeter=orthogonalPerimeter;fillColor=#000000;strokeColor=none;" vertex="1" parent="1">
          <mxGeometry x="980" y="340" width="5" height="200" as="geometry" />
        </mxCell>
        <mxCell id="pz0rCT-SLgXBm0Ynou9--46" value="" style="html=1;verticalAlign=bottom;endArrow=block;exitX=1;exitY=0.5;exitDx=0;exitDy=0;" edge="1" parent="1" source="pz0rCT-SLgXBm0Ynou9--17">
          <mxGeometry width="80" relative="1" as="geometry">
            <mxPoint x="950" y="524.8199999999999" as="sourcePoint" />
            <mxPoint x="980" y="524.41" as="targetPoint" />
            <Array as="points" />
          </mxGeometry>
        </mxCell>
        <mxCell id="pz0rCT-SLgXBm0Ynou9--47" value="" style="html=1;verticalAlign=bottom;endArrow=block;exitX=1;exitY=0.5;exitDx=0;exitDy=0;entryX=0.413;entryY=0.647;entryDx=0;entryDy=0;entryPerimeter=0;" edge="1" parent="1" source="pz0rCT-SLgXBm0Ynou9--16" target="pz0rCT-SLgXBm0Ynou9--39">
          <mxGeometry width="80" relative="1" as="geometry">
            <mxPoint x="950" y="535" as="sourcePoint" />
            <mxPoint x="990" y="534.41" as="targetPoint" />
            <Array as="points">
              <mxPoint x="960" y="470" />
            </Array>
          </mxGeometry>
        </mxCell>
        <mxCell id="pz0rCT-SLgXBm0Ynou9--48" value="" style="html=1;verticalAlign=bottom;endArrow=block;entryX=-0.023;entryY=0.375;entryDx=0;entryDy=0;entryPerimeter=0;" edge="1" parent="1" target="pz0rCT-SLgXBm0Ynou9--39">
          <mxGeometry width="80" relative="1" as="geometry">
            <mxPoint x="940" y="415" as="sourcePoint" />
            <mxPoint x="1000" y="544.41" as="targetPoint" />
            <Array as="points" />
          </mxGeometry>
        </mxCell>
        <mxCell id="pz0rCT-SLgXBm0Ynou9--49" value="" style="html=1;verticalAlign=bottom;endArrow=block;exitX=1;exitY=0.75;exitDx=0;exitDy=0;" edge="1" parent="1" source="pz0rCT-SLgXBm0Ynou9--14" target="pz0rCT-SLgXBm0Ynou9--39">
          <mxGeometry width="80" relative="1" as="geometry">
            <mxPoint x="950" y="425" as="sourcePoint" />
            <mxPoint x="989.885" y="425" as="targetPoint" />
            <Array as="points" />
          </mxGeometry>
        </mxCell>
        <mxCell id="pz0rCT-SLgXBm0Ynou9--50" value="&lt;font style=&quot;font-size: 14px&quot;&gt;Hiển thị trang thông&amp;nbsp;&lt;br&gt;tin chi tiết sản phẩm&amp;nbsp;&lt;br&gt;cụ thể&lt;br&gt;&lt;/font&gt;" style="html=1;align=center;verticalAlign=top;rounded=1;absoluteArcSize=1;arcSize=10;dashed=0;" vertex="1" parent="1">
          <mxGeometry x="1040" y="420" width="140" height="55" as="geometry" />
        </mxCell>
        <mxCell id="pz0rCT-SLgXBm0Ynou9--53" value="" style="html=1;verticalAlign=bottom;endArrow=block;" edge="1" parent="1">
          <mxGeometry x="1" y="-100" width="80" relative="1" as="geometry">
            <mxPoint x="980" y="446.90999999999997" as="sourcePoint" />
            <mxPoint x="1040" y="446.90999999999997" as="targetPoint" />
            <mxPoint x="10" as="offset" />
          </mxGeometry>
        </mxCell>
        <mxCell id="pz0rCT-SLgXBm0Ynou9--56" value="" style="html=1;verticalAlign=bottom;endArrow=block;entryX=0.5;entryY=1;entryDx=0;entryDy=0;exitX=1;exitY=0.5;exitDx=0;exitDy=0;" edge="1" parent="1" source="pz0rCT-SLgXBm0Ynou9--8" target="pz0rCT-SLgXBm0Ynou9--50">
          <mxGeometry width="80" relative="1" as="geometry">
            <mxPoint x="980" y="580" as="sourcePoint" />
            <mxPoint x="1060" y="580" as="targetPoint" />
            <Array as="points">
              <mxPoint x="1110" y="750" />
            </Array>
          </mxGeometry>
        </mxCell>
        <mxCell id="pz0rCT-SLgXBm0Ynou9--57" value="" style="html=1;verticalAlign=bottom;endArrow=block;entryX=0.5;entryY=0;entryDx=0;entryDy=0;" edge="1" parent="1" target="pz0rCT-SLgXBm0Ynou9--50">
          <mxGeometry x="0.0526" y="44" width="80" relative="1" as="geometry">
            <mxPoint x="680" y="424" as="sourcePoint" />
            <mxPoint x="880" y="314" as="targetPoint" />
            <Array as="points">
              <mxPoint x="680" y="314" />
              <mxPoint x="1110" y="314" />
            </Array>
            <mxPoint as="offset" />
          </mxGeometry>
        </mxCell>
        <mxCell id="pz0rCT-SLgXBm0Ynou9--59" value="&lt;font style=&quot;font-size: 14px&quot;&gt;Kết thúc use case &lt;br&gt;tra cứu sản phẩm&lt;/font&gt;" style="html=1;verticalAlign=bottom;endArrow=block;" edge="1" parent="1">
          <mxGeometry x="1" y="32" width="80" relative="1" as="geometry">
            <mxPoint x="1180" y="450" as="sourcePoint" />
            <mxPoint x="1250" y="450" as="targetPoint" />
            <mxPoint x="10" y="2" as="offset" />
          </mxGeometry>
        </mxCell>
        <mxCell id="pz0rCT-SLgXBm0Ynou9--60" value="" style="ellipse;html=1;shape=endState;fillColor=#000000;strokeColor=#ff0000;" vertex="1" parent="1">
          <mxGeometry x="1250" y="432.5" width="30" height="30" as="geometry" />
        </mxCell>
        <mxCell id="pz0rCT-SLgXBm0Ynou9--61" value="Bắt đầu use case &lt;br&gt;tra&amp;nbsp;cứu sản phẩm" style="text;html=1;align=center;verticalAlign=middle;resizable=0;points=[];autosize=1;" vertex="1" parent="1">
          <mxGeometry x="580" y="270" width="110" height="30" as="geometry" />
        </mxCell>
      </root>
    </mxGraphModel>
  </diagram>
</mxfile>
